<svg width="200" height="200" viewBox="0 0 200 200" xmlns="http://www.w3.org/2000/svg">
  <!-- All White Version for Dark Backgrounds -->
  <path d="M100 20 L160 40 L160 100 Q160 150 100 180 Q40 150 40 100 L40 40 Z"
        fill="none"
        stroke="#FFFFFF"
        stroke-width="3"/>

  <!-- Mountains -->
  <path d="M60 120 L75 85 L90 105 L90 120 Z" fill="#FFFFFF" opacity="0.7"/>
  <path d="M80 120 L100 60 L120 120 Z" fill="#FFFFFF"/>
  <path d="M110 120 L125 95 L140 120 Z" fill="#FFFFFF" opacity="0.7"/>

  <!-- Aurora Accent -->
  <path d="M65 85 L80 78 L100 75 L120 78 L135 85"
        stroke="#FFFFFF"
        stroke-width="2.5"
        fill="none"
        opacity="0.9"/>

  <!-- Snow Caps (brighter white) -->
  <path d="M100 60 L105 68 L95 68 Z" fill="#FFFFFF"/>

  <!-- North Point -->
  <circle cx="100" cy="45" r="3" fill="#FFFFFF"/>
  <circle cx="100" cy="45" r="6" fill="none" stroke="#FFFFFF" stroke-width="1.5" opacity="0.5"/>
</svg>
