<svg width="200" height="200" viewBox="0 0 200 200" xmlns="http://www.w3.org/2000/svg">
  <defs>
    <linearGradient id="auroraReverse" x1="0%" y1="0%" x2="100%" y2="0%">
      <stop offset="0%" style="stop-color:#00FFA3;stop-opacity:1" />
      <stop offset="50%" style="stop-color:#7ED7C1;stop-opacity:1" />
      <stop offset="100%" style="stop-color:#A8D8EA;stop-opacity:1" />
    </linearGradient>
  </defs>

  <!-- Shield Outline (Aurora Gradient) -->
  <path d="M100 20 L160 40 L160 100 Q160 150 100 180 Q40 150 40 100 L40 40 Z"
        fill="none"
        stroke="url(#auroraReverse)"
        stroke-width="3"/>

  <!-- Mountains (Light) -->
  <path d="M60 120 L75 85 L90 105 L90 120 Z" fill="#F8F9FA" opacity="0.7"/>
  <path d="M80 120 L100 60 L120 120 Z" fill="#F8F9FA"/>
  <path d="M110 120 L125 95 L140 120 Z" fill="#F8F9FA" opacity="0.7"/>

  <!-- Aurora Accent (Bright) -->
  <path d="M60 85 L80 75 L100 70 L120 75 L140 85 L140 95 L60 95 Z"
        fill="url(#auroraReverse)"
        opacity="0.8"/>

  <!-- Snow Caps (Bright White) -->
  <path d="M100 60 L105 68 L95 68 Z" fill="#FFFFFF"/>
  <path d="M75 85 L78 90 L72 90 Z" fill="#FFFFFF"/>
  <path d="M125 95 L128 100 L122 100 Z" fill="#FFFFFF"/>

  <!-- Compass Points (Aurora Green) -->
  <circle cx="100" cy="45" r="3" fill="#00FFA3"/>
  <circle cx="100" cy="45" r="7" fill="none" stroke="#00FFA3" stroke-width="1.5" opacity="0.6"/>
</svg>
